<svg id="圖層_1" data-name="圖層 1" xmlns="http://www.w3.org/2000/svg" viewBox="0 0 70 75"><defs><style>.cls-1{fill:#ec776b;}.cls-2{fill:#fff;}</style></defs><path class="cls-1" d="M67.48,51.1c-1.1,2.6-7.7,2-9.4,4.1s.4,8.4-1.8,10.1-7.6-2.2-10.2-1.2-3.8,7.5-6.6,7.8-5.5-5.7-8.2-6.1-7,4.6-9.7,3.4-2-7.7-4.1-9.4-8.4.4-10.1-1.8,2.2-7.6,1.2-10.2S1.08,44,.78,41.2s5.7-5.5,6.1-8.2-4.6-7-3.4-9.7,7.7-2,9.4-4.1-.4-8.4,1.8-10.1,7.6,2.2,10.2,1.2,3.8-7.5,6.6-7.8,5.5,5.7,8.2,6.1,7-4.6,9.7-3.4,2,7.7,4.1,9.4,8.4-.4,10.1,1.8-2.2,7.6-1.2,10.2,7.5,3.8,7.8,6.6-5.7,5.5-6.1,8.2S68.58,48.4,67.48,51.1Z"/><path class="cls-2" d="M30.16,22.41a.11.11,0,0,1,.08.15l-.13.4c0,.11-.09.15-.17.12l-3.76-1.25c.22.29.33.45.31.49s-.1.11-.2.07a.47.47,0,0,0-.44.17c-.41.28-1,.65-1.67,1.09a13.28,13.28,0,0,1-2.36,1.12,11.49,11.49,0,0,1-1.91.5.21.21,0,0,1-.17-.17,4.29,4.29,0,0,1-.2-.46c-.07-.05-.09-.09-.08-.13a.11.11,0,0,1,.12-.08,10.85,10.85,0,0,0,2.32-.51,11,11,0,0,0,2-1,12.93,12.93,0,0,0,1.72-1.3l-4.51-1.51c-.08,0-.11-.09-.07-.2l.13-.4a.12.12,0,0,1,.16-.07Zm-4.84,1.68c0,.1-.09.13-.15.11s-.12.07-.16.19l-1.8,5.38c0,.08-.11.1-.24.05l-.4-.13q-.16-.06-.12-.18l1.92-5.73c0-.08.09-.11.2-.07C25.1,23.89,25.35,24,25.32,24.09Zm2.51,1.25c.35.72.65,1.35.89,1.91a.25.25,0,0,1-.09.07l-.49.35a20.53,20.53,0,0,0-1.22-2.49,9.64,9.64,0,0,0-1-1.42,2.56,2.56,0,0,1,.51-.37.14.14,0,0,1,.11,0A20.23,20.23,0,0,1,27.83,25.34Z"/><path class="cls-2" d="M31.78,28c.1,0,.13.09.11.17l-.76,2.25a1.68,1.68,0,0,0-.1.68.63.63,0,0,0,.13.41,1.55,1.55,0,0,0,.44.4,6.21,6.21,0,0,0,.85.36l2.12.71a19.22,19.22,0,0,0,3,.69l.16,0s.07.05.06.07a6.26,6.26,0,0,0-.46.75c-.06.11-.13.15-.22.12L32.21,33a4.51,4.51,0,0,1-.67-.29,6,6,0,0,1-.58-.41,2,2,0,0,1-.41-.52A2.63,2.63,0,0,1,30.4,31v-.06c-.05,0-.08,0-.08,0a3.77,3.77,0,0,0-1.23.85s-.08.05-.1,0-.12-.23-.22-.65a.4.4,0,0,1,0-.21,6.53,6.53,0,0,0,1.52-.6.53.53,0,0,0,.11-.22L31,28.41,29.78,28c-.08,0-.1-.09-.07-.19l.11-.32c0-.1.09-.15.17-.12Zm0-2.2.54.59s0,0-.08.06a3.1,3.1,0,0,1-.46.33,10.57,10.57,0,0,0-.73-.77,6.38,6.38,0,0,0-.57-.46,2,2,0,0,1,.46-.34l.11-.05C31.39,25.38,31.63,25.6,31.82,25.77Zm1-2.16.45.69-.08.06-.45.34c-.19-.31-.4-.62-.62-.91a3.66,3.66,0,0,0-.49-.52,2.26,2.26,0,0,1,.46-.35.24.24,0,0,1,.11,0C32.49,23.16,32.71,23.4,32.86,23.61Zm1.42,4.75.2-.59c0-.05.07-.07.15,0,.46.15.69.27.67.36s-.08.12-.13.1-.1,0-.14.16l-.08.24,1.47.49.2-.6c0-.05.07-.07.15,0,.46.16.69.28.67.36s-.08.12-.13.11-.1,0-.14.15l-.08.24,1.46.5c.06,0,.07.06,0,.15l-.1.31c0,.1-.08.14-.13.12l-1.47-.49-.29.87,1.78.6s.07.07,0,.15l-.1.31c0,.12-.09.16-.14.14L34,30.56a2.86,2.86,0,0,1,.33.68c0,.06-.06.06-.13,0s-.2-.05-.22,0a6.77,6.77,0,0,1-1.74.56c-.08,0-.12-.07-.12-.14a1.22,1.22,0,0,0-.13-.34.15.15,0,0,1,0-.14.08.08,0,0,1,.08-.06,4.64,4.64,0,0,0,.83-.18,4.14,4.14,0,0,0,1-.45l-1.92-.64c-.06,0-.06-.08,0-.19l.11-.32q0-.12.12-.09l1.66.56.29-.88-1.27-.42c-.05,0-.06-.08,0-.18l.1-.31c0-.09.06-.12.12-.1ZM34,26q-.15.43.36.6l.84.28a.19.19,0,0,0,.25-.07c0-.05.1-.15.19-.31a1.5,1.5,0,0,0,.39.45.15.15,0,0,1,.05.18,1.28,1.28,0,0,1-.33.39c-.1.1-.28.11-.55,0l-1.39-.47c-.52-.17-.72-.45-.59-.85L34,23.75c0-.08.09-.11.2-.07l2.33.78q.16.06.12.18l-.51,1.54c0,.08-.1.1-.2.06l-1.87-.62Zm.27-.84,1.35.46.28-.83-1.35-.46Zm1.68,5.4.29-.87-1.47-.49-.29.87Zm.73,1.66a4,4,0,0,0,.69.7c0,.05,0,.09,0,.11s-.2.17-.55.35a.2.2,0,0,1-.09,0,6.74,6.74,0,0,1-1.19-1.62.19.19,0,0,1,0-.09c0-.05.2-.14.58-.29A5.49,5.49,0,0,0,36.66,32.2Zm.71-5c-.1.29,0,.49.37.6l.87.3c.17.05.29,0,.37-.06a1.32,1.32,0,0,0,.24-.32,1.38,1.38,0,0,0,.39.45.15.15,0,0,1,.06.19,1.33,1.33,0,0,1-.4.4c-.12.1-.33.1-.66,0l-1.42-.48c-.53-.17-.73-.45-.6-.85l.84-2.49c0-.08.09-.11.19-.07l2.38.79c.1,0,.14.1.11.18l-.51,1.54c0,.08-.1.1-.2.07l-1.9-.64Zm.29-.88,1.39.47.27-.83-1.38-.47Z"/><path class="cls-2" d="M44.71,27.54c0,.06-.06.08-.1.07a.32.32,0,0,0-.28,0,12.18,12.18,0,0,1-1.52,1.53L40.65,35.6c0,.08-.11.1-.23.06l-.4-.13c-.11,0-.14-.1-.12-.18l1.83-5.44-1.1.63a.3.3,0,0,1-.18-.17c-.07-.11-.14-.24-.21-.36a.13.13,0,0,1,0-.15c.39-.21.79-.43,1.2-.68A7.78,7.78,0,0,0,42.9,28,9.79,9.79,0,0,0,44,26.8s.06-.07.1-.05C44.51,27.22,44.73,27.49,44.71,27.54Zm4.53,2.39a7.47,7.47,0,0,1-2.12.06l-.78,2.32,2.73.91c.08,0,.1.1.06.2l-.1.32q-.06.16-.18.12L46.13,33l-1,3,2.41.81c.09,0,.11.1.07.2l-.1.31c0,.1-.1.15-.18.12L42,35.61c-.08,0-.1-.1-.07-.21l.11-.31c0-.1.09-.15.17-.12l2.17.72,1-3-2.58-.87c-.08,0-.09-.08-.06-.2l.11-.31c0-.1.08-.15.17-.13l2.57.87.73-2.19a13.44,13.44,0,0,1-1.89-.49c-.15-.05-.21-.12-.22-.21a1.06,1.06,0,0,0,0-.47.39.39,0,0,1,0-.18,15.22,15.22,0,0,0,2.67.65,6,6,0,0,0,2.28-.05.6.6,0,0,1,.22,0,.4.4,0,0,1,.12.11c.28.44.4.71.37.8s-.11.19-.19.17L49.46,30A.61.61,0,0,0,49.24,29.93Z"/><path class="cls-2" d="M56.21,31.05c.06.09.09.14.08.18a.16.16,0,0,1-.18.12c-.18-.06-.32,0-.43.22s-.43.64-.62.93l2.9,1c.13,0,.19.11.16.19l-.9,1.59,1.23.41c.13.05.19.11.17.18l-.88,1.56,1,.34a.2.2,0,0,1,.14.27c-.47.9-.91,1.67-1.3,2.3a1.89,1.89,0,0,1-.64.74,1.59,1.59,0,0,1-1-.11c-.43-.14-.63-.29-.59-.42a2.4,2.4,0,0,0,0-.53c0-.06,0-.08.11-.06a5.06,5.06,0,0,0,.8.36.53.53,0,0,0,.48,0,16,16,0,0,0,1.3-2l-5.94-2c-.22.24-.45.48-.68.7a17,17,0,0,1-1.91,1.46.7.7,0,0,1-.23-.12c-.13-.11-.25-.22-.38-.31s-.07-.08-.06-.1a.22.22,0,0,1,.16-.17,13.36,13.36,0,0,0,2.9-2.33,16.38,16.38,0,0,0,1.58-1.87c.16-.2.31-.42.48-.65l-2.77-.93c-.08,0-.1-.09-.07-.19l.11-.32c0-.1.09-.14.17-.12l2.93,1c.31-.48.63-1,1-1.61.08-.12.17-.17.23-.15Zm-3.82,6.23a.13.13,0,0,1,.1.18,12.05,12.05,0,0,1-1,1.63l-.07.06a.73.73,0,0,1-.24-.13,1.84,1.84,0,0,0-.33-.27.14.14,0,0,1,0-.15,6,6,0,0,0,1-1.44c0-.08.1-.12.17-.09ZM57,37.15l.7-1-4.25-1.42s-.06.06-.06.08l-.79.91ZM53.34,29.9a11.44,11.44,0,0,1,.39,1.45c0,.1-.07.15-.11.14a1.16,1.16,0,0,1-.65,0A13.15,13.15,0,0,0,52.7,30c0-.07.2-.14.54-.18A.14.14,0,0,1,53.34,29.9Zm.24,7.83a16,16,0,0,1-.13,1.71c0,.06-.25.07-.65,0-.07,0-.08,0-.07-.09A15.74,15.74,0,0,0,53,37.66c0-.06.2-.07.57,0C53.59,37.64,53.59,37.68,53.58,37.73ZM56.48,35l.71-1.09-2.52-.84c-.3.42-.55.77-.78,1.07Zm-1.62,3c.06.43.1.89.12,1.36,0,.1-.07.14-.11.14a1.18,1.18,0,0,1-.61.06c0-.58,0-1.06,0-1.46,0-.06.2-.12.54-.17A.11.11,0,0,1,54.86,38Zm1.29.22a9.51,9.51,0,0,1,.46,1.15c0,.1-.08.15-.12.14a1.08,1.08,0,0,1-.61.06,11.55,11.55,0,0,0-.33-1.25c0-.07.2-.13.55-.17A.13.13,0,0,1,56.15,38.2Z"/><path class="cls-2" d="M25.46,35.13c.1,0,.15.09.13.17L22.7,43.93c0,.08-.1.1-.2.07l-.4-.13q-.17-.06-.12-.18l.1-.31-7-2.33-.1.31c0,.08-.1.1-.2.07l-.4-.13c-.1,0-.14-.1-.11-.18l2.89-8.63c0-.07.09-.1.19-.06ZM22.3,42.74l2.41-7.21-7-2.33-2.42,7.21Zm-2.75-3.12a2.07,2.07,0,0,1-.2.51c-.91-.05-1.81-.11-2.71-.21-.17.16-.27.22-.33.2s-.09-.32-.09-.92c.41.07.91.14,1.52.19s1.18.09,1.73.09h.05S19.58,39.54,19.55,39.62Zm.63-2.91c.1,0,.15.09.12.16l-.67,2c0,.08-.1.09-.2.06l-2.37-.79c-.12,0-.16-.09-.13-.17l.68-2c0-.07.09-.09.2,0Zm1.07-1c.06-.21.13-.44.21-.68,0-.08.06-.12.11-.1l.61.26c.11,0,.16.09.15.13s-.08.13-.14.13-.12.1-.17.25l-.08.24,1.31.44c-.12-.2-.25-.37-.37-.55a2.79,2.79,0,0,0-.31-.34,2,2,0,0,1,.42-.32.19.19,0,0,1,.1,0c.16.19.3.35.4.49l.3.46-.08,0-.39.27.68.23c.05,0,.06.07,0,.14l-.11.31c0,.12-.08.16-.13.14l-2.05-.69a10.08,10.08,0,0,0-.28,1,6.89,6.89,0,0,0-.23,1.41c0,.2,0,.39,0,.55a7,7,0,0,0,.64-.68,5.9,5.9,0,0,0,.72-1,.1.1,0,0,1,.13-.06c.47.36.69.57.67.62a.16.16,0,0,1-.17.12.21.21,0,0,0-.21.06,11.11,11.11,0,0,1-1,1.24,6,6,0,0,1-.69.59,2,2,0,0,0,.15.59.53.53,0,0,0,.23.21s.11,0,.22-.12a5.29,5.29,0,0,0,.44-.53.26.26,0,0,1,.08.12,1,1,0,0,0,.17.43.28.28,0,0,1,.05.26c-.25.25-.46.44-.62.57s-.47.25-.61.2a.56.56,0,0,1-.22-.13,1.38,1.38,0,0,1-.31-.5,2.7,2.7,0,0,1-.23-.68,6.15,6.15,0,0,1-1.26.51.28.28,0,0,1-.13,0,.22.22,0,0,1-.15-.17,2,2,0,0,0-.16-.36.14.14,0,0,1,0-.16s0,0,.08,0a2.21,2.21,0,0,0,.63-.15,4,4,0,0,0,.94-.44,6.46,6.46,0,0,1,0-.88,14,14,0,0,1,.25-1.63c.06-.32.16-.7.29-1.15l-3.33-1.12s-.06-.07,0-.18l.11-.32c0-.07.05-.1.1-.09Zm-1.78,1.42-1.34-.44-.36,1.07,1.34.45Z"/><path class="cls-2" d="M31.57,40.52a16.75,16.75,0,0,0-.42,1.66l3,1c.08,0,.11.09.08.19l-.11.32c0,.11-.1.14-.18.11l-2.84-.95a3.75,3.75,0,0,0,0,1A3.53,3.53,0,0,0,31.4,45a2.76,2.76,0,0,0,.42.84c.18.31.34.48.49.52s.19,0,.36-.17a4.07,4.07,0,0,0,.62-1c.05-.06.09-.09.13-.08a.18.18,0,0,1,.1.09,2,2,0,0,0,.26.25c.06.08.1.14.09.16a7.68,7.68,0,0,1-.81,1.23c-.32.33-.6.46-.83.38a1.25,1.25,0,0,1-.38-.24,2.3,2.3,0,0,1-.42-.46,6.83,6.83,0,0,1-.61-1,7.05,7.05,0,0,1-.36-1.1,7.68,7.68,0,0,1-.09-1,6.36,6.36,0,0,1,0-.77l-3.3-1.1L26.27,44l.41,0c.93.07,1.82.11,2.68.1a.1.1,0,0,1,.08,0s.06.07,0,.15a2.53,2.53,0,0,1-.25.59c-1.47,0-2.95-.13-4.44-.26-.18.14-.3.2-.37.18s-.1-.36-.11-1c.36,0,.76.1,1.19.14l2.6-7.77a.15.15,0,0,1,.21-.1l6.77,2.27c.1,0,.14.09.12.16l-.89,2.66a.14.14,0,0,1-.21.1l-2.49-.83Zm-4.26.38L30.48,42a12.38,12.38,0,0,1,.42-1.75l-3-1Zm.79-2.34,5.66,1.89.56-1.66L28.65,36.9Z"/><path class="cls-2" d="M37.84,44.25a6,6,0,0,1,0,.67.17.17,0,0,1-.11.13c-.62.71-1.17,1.3-1.67,1.77-.27.27-.59.55-1,.86A1,1,0,0,0,35,48c0,.08-.07.11-.12.1a3.15,3.15,0,0,1-.44-.86.18.18,0,0,1,0-.13.24.24,0,0,1,.1-.14,5.08,5.08,0,0,0,.88-.56,16.32,16.32,0,0,0,1.31-1.16c.39-.39.73-.75,1-1.08,0-.05.08-.07.1-.06S37.84,44.18,37.84,44.25Zm-.17-2.06c.26.31.48.57.65.8,0,0,0,0-.08.07l-.45.33a9.6,9.6,0,0,0-.88-1c-.27-.27-.5-.47-.68-.62a2,2,0,0,1,.46-.34l.1,0C37.16,41.67,37.45,42,37.67,42.19Zm3.45,3.31c.43.44.65.7.63.76s-.06.06-.13,0a.28.28,0,0,0-.28.05l-2.29,1.79c1,.24,2.18.51,3.57.8a11.47,11.47,0,0,0-.4-1.82,1.91,1.91,0,0,1,.71-.15A17.82,17.82,0,0,1,43.37,49a10.14,10.14,0,0,1,.12,1.76,2.7,2.7,0,0,1-.79,0,6.26,6.26,0,0,0,0-1.22c-2.59-.43-4.28-.72-5-.87a.16.16,0,0,0-.2.06c-.06.09-.13.14-.22.11s-.08-.45,0-1.23l1,.28c.84-.7,1.38-1.18,1.62-1.41a9.27,9.27,0,0,0,1-1.06.15.15,0,0,1,.16,0A.61.61,0,0,1,41.12,45.5ZM38.9,40.1c.24.3.42.58.59.82,0,0,0,0-.08.07l-.44.32a11.82,11.82,0,0,0-.82-1.08,7.3,7.3,0,0,0-.64-.63,1.92,1.92,0,0,1,.47-.34s.08,0,.1,0A11.79,11.79,0,0,1,38.9,40.1Zm3.38,2.23.55-1.66c0-.07.09-.09.2-.06.5.17.74.3.72.37s-.09.12-.16.11-.13,0-.17.17L43,42.57l2.46.82c.07,0,.09.1.06.2l-.11.32c0,.11-.09.15-.16.12l-2.47-.82L42.16,45,44.9,46c.08,0,.1.09.07.19l-.1.32c0,.11-.1.14-.18.12l-6.1-2c-.08,0-.1-.09-.06-.2l.11-.32c0-.1.08-.14.16-.11l2.65.89L42.06,43l-2.29-.76q-.12,0-.06-.21l.1-.31c0-.1.1-.15.18-.12Z"/><path class="cls-2" d="M53.66,47.11c.1,0,.14.09.12.17L53,49.5a.14.14,0,0,1-.21.1l-4.47-1.49-.32,1L53,50.71c.1,0,.15.1.12.18l-.91,2.73c0,.08-.1.1-.2.06l-.4-.13c-.1,0-.14-.09-.11-.17L51.6,53l-4.4-1.47-.21.64c0,.07-.1.09-.2.06l-.4-.13c-.1,0-.14-.09-.11-.17l2.14-6.41c0-.1.11-.15.21-.11Zm-1.07-3.26c0,.1-.09.14-.15.11s-.13.06-.17.18l-.22.67,3.8,1.27c.1,0,.15.1.12.18l-.66,2c0,.08-.11.1-.21.06l-.39-.13c-.1,0-.14-.09-.11-.17l.49-1.46-7.33-2.45-.5,1.5c0,.08-.1.1-.2.07l-.4-.14c-.1,0-.14-.09-.11-.17l.66-2a.15.15,0,0,1,.2-.12l3.88,1.3.35-1c0-.07.09-.1.2-.06C52.37,43.65,52.62,43.78,52.59,43.85Zm-.78,8.54.41-1.22-4.4-1.47-.41,1.22Zm.67-3.6.41-1.23L49,46.25l-.41,1.23Z"/></svg>