<svg id="圖層_1" data-name="圖層 1" xmlns="http://www.w3.org/2000/svg" viewBox="0 0 70 75"><defs><style>.cls-1{fill:#e5002c;}.cls-2{fill:#fff;}</style></defs><path class="cls-1" d="M67.29,51.1c-1.1,2.6-7.7,2-9.4,4.1s.4,8.4-1.8,10.1-7.6-2.2-10.2-1.2-3.8,7.5-6.6,7.8-5.5-5.7-8.2-6.1-7,4.6-9.7,3.4-2-7.7-4.1-9.4-8.4.4-10.1-1.8,2.2-7.6,1.2-10.2S.89,44,.59,41.2s5.7-5.5,6.1-8.2-4.6-7-3.4-9.7,7.7-2,9.4-4.1-.4-8.4,1.8-10.1,7.6,2.2,10.2,1.2,3.8-7.5,6.6-7.8,5.5,5.7,8.2,6.1,7-4.6,9.7-3.4,2,7.7,4.1,9.4,8.4-.4,10.1,1.8-2.2,7.6-1.2,10.2,7.5,3.8,7.8,6.6-5.7,5.5-6.1,8.2S68.39,48.4,67.29,51.1Z"/><path class="cls-2" d="M23.21,19.22c0,.06-.05.09-.09.07a.25.25,0,0,0-.22.05,11.4,11.4,0,0,1-1.35,1.22q0,.35,0,.72a11.64,11.64,0,0,1-.13,1.6,15.18,15.18,0,0,1-.39,1.74,10.92,10.92,0,0,1-.85,2,2.76,2.76,0,0,1-.64.8.77.77,0,0,1-.51.09,4.77,4.77,0,0,1-1.1-.22c-.06,0-.08-.08-.05-.17s0-.42,0-.64a.33.33,0,0,1,0-.16l.69.31a.7.7,0,0,0,.71,0,2.38,2.38,0,0,0,.42-.69c.2-.45.4-.94.59-1.51.08-.26.16-.52.22-.77l-.24.2a8.85,8.85,0,0,1-.91.64,7.56,7.56,0,0,1-1,.48.25.25,0,0,1-.15-.13c-.08-.17-.16-.31-.24-.47a.4.4,0,0,1,0-.11,3.88,3.88,0,0,0,.74-.27,5.37,5.37,0,0,0,1-.6,13.84,13.84,0,0,0,1-.94,7.85,7.85,0,0,0,.06-1.07c0-.12,0-.22,0-.32-.36.2-.89.47-1.61.79a.22.22,0,0,1-.15-.15c-.06-.1-.13-.21-.19-.33a.16.16,0,0,1,0-.13c.4-.16.8-.35,1.21-.55a6,6,0,0,0,.7-.4c0-.16-.06-.31-.09-.46a5.61,5.61,0,0,0-.47-1.17c0-.06.22-.18.61-.37a8.39,8.39,0,0,1,.6,1.53l.14-.1a6.82,6.82,0,0,0,1-1.06c0-.05.05-.08.07-.07C23,19,23.23,19.18,23.21,19.22Zm3.1,8a.36.36,0,0,1,.14.1c.08.18.12.29.1.33a3.13,3.13,0,0,1-.88.52,4.54,4.54,0,0,1-.91.29l-.16,0c.12.09.28.17.44.27a14.79,14.79,0,0,0,1.37.71c.06,0,.1,0,.09.06s0,.06-.08.09a2.45,2.45,0,0,0-.49.24c-.06,0-.11.05-.13,0l-.17-.09-.85-.47a11.54,11.54,0,0,1-1-.67l-.12-.11a11.7,11.7,0,0,1-1.51-.1c-.37,0-.85-.13-1.42-.25a.2.2,0,0,1-.14-.13,3.31,3.31,0,0,1-.11-.39.15.15,0,0,1,0-.09s0,0,.09,0l1.05.22A13.39,13.39,0,0,0,23,28a2.34,2.34,0,0,1-.47-.71,2.43,2.43,0,0,1-.26-.76l-.78-.26c-.05,0-.06-.06,0-.14l.11-.32c0-.07,0-.1.1-.09Zm-1.87-5.93c.06.07.1.13.08.18s-.08.09-.18.08a.26.26,0,0,0-.29.05.08.08,0,0,0-.05,0l1.45.48c.26-.18.52-.36.77-.57l.47.55a.25.25,0,0,1,.07.19s-.05,0-.12,0a2.38,2.38,0,0,0-.36.11l2,.68c.05,0,.06.07,0,.14l-.11.32c0,.08-.07.1-.12.09l-2-.67-.18.52,1.79.6c.05,0,.06.06,0,.15l-.11.31c0,.08-.07.11-.12.1l-1.78-.6-.17.51,1.78.6c.05,0,.06.07,0,.14l-.11.33c0,.08-.06.1-.11.08l-1.79-.6-.17.52,2.14.72c.05,0,.06.06,0,.14l-.11.32q0,.12-.12.09l-4.51-1.51c0,.08-.1.1-.2.07l-.4-.13c-.08,0-.11-.08-.08-.16l.88-2.63a4.35,4.35,0,0,1-.39.23.46.46,0,0,1-.23.06.34.34,0,0,1-.14-.11l-.3-.3s-.06-.05-.06-.06a.14.14,0,0,1,.09-.07,7.07,7.07,0,0,0,1.06-.57,3.57,3.57,0,0,0,.87-.74c.08-.07.13-.11.18-.09Zm.14,4.12.17-.52-1.7-.57-.17.52ZM23.06,27a2,2,0,0,0,.44.65,2.06,2.06,0,0,0,.37.35,2.49,2.49,0,0,0,.57-.06,2.62,2.62,0,0,0,.83-.28l.16-.07L23,26.71A.87.87,0,0,0,23.06,27Zm2.83-7.18c0,.08-.07.12-.12.11s-.11,0-.15.15l-.34,1c0,.09-.09.11-.2.08l-.4-.14a.11.11,0,0,1-.07-.16l.12-.36L23.22,20s-.06-.07,0-.19l.11-.31c0-.08.06-.12.11-.1l1.51.51.14-.44c0-.05.06-.07.14,0C25.69,19.57,25.92,19.69,25.89,19.77Zm-.78,4.05-1.7-.56-.18.51,1.71.57Zm.36-1.07-1.7-.57-.18.52,1.7.57Zm2.2-2.38c0,.08-.07.12-.12.1s-.1.05-.14.16l0,.08,1.54.51s.07.07,0,.15l-.1.32c0,.11-.09.15-.14.13l-1.54-.51-.12.35c0,.08-.1.1-.2.07l-.4-.13c-.08,0-.09-.08-.07-.16l.47-1.39c0-.05.05-.07.14-.05C27.47,20.16,27.7,20.29,27.67,20.37Z"/><path class="cls-2" d="M30.68,26.61q.15.06.12.18L30,29a1.66,1.66,0,0,0-.1.67.64.64,0,0,0,.13.42,1.29,1.29,0,0,0,.44.39,6.19,6.19,0,0,0,.85.37l2.12.71a20.56,20.56,0,0,0,3,.69.29.29,0,0,1,.16,0c.06,0,.08,0,.07.07a5.6,5.6,0,0,0-.47.75q-.07.16-.21.12l-4.92-1.64a4.54,4.54,0,0,1-.67-.3,4,4,0,0,1-.58-.41,1.75,1.75,0,0,1-.41-.52,2.25,2.25,0,0,1-.15-.73l0-.06s-.07,0-.07,0a4,4,0,0,0-1.24.85s-.07.06-.09.05-.12-.23-.22-.65a.4.4,0,0,1,0-.21,6.49,6.49,0,0,0,1.51-.6.58.58,0,0,0,.12-.22l.58-1.74-1.22-.41c-.08,0-.1-.1-.07-.2l.1-.31c0-.1.1-.15.18-.12Zm.05-2.19.54.59-.08.06a3.1,3.1,0,0,1-.46.33c-.23-.27-.48-.53-.73-.77s-.43-.36-.57-.46a2,2,0,0,1,.46-.34c.05,0,.09-.06.11,0C30.3,24,30.54,24.24,30.73,24.42Zm1-2.16.44.68s0,0-.07.07l-.45.33a9.55,9.55,0,0,0-.62-.9,4.57,4.57,0,0,0-.49-.53,2,2,0,0,1,.46-.34.14.14,0,0,1,.11,0C31.4,21.81,31.62,22.05,31.77,22.26ZM33.19,27l.2-.6c0-.05.06-.06.15,0,.46.16.69.28.67.36s-.08.12-.13.11-.1,0-.14.15l-.08.25,1.47.49.19-.6c0-.05.07-.07.15,0,.47.15.7.28.67.36s-.07.12-.12.1-.11.05-.14.16L36,28l1.47.49s.07.07,0,.15l-.1.31c0,.11-.08.15-.13.13l-1.47-.49-.29.87,1.78.6c.05,0,.07.06,0,.15l-.11.31c0,.11-.08.15-.13.14L32.91,29.2a3,3,0,0,1,.33.69c0,.05-.07.06-.14,0s-.2-.05-.22,0a7.57,7.57,0,0,1-1.73.56.16.16,0,0,1-.12-.15A1.18,1.18,0,0,0,30.9,30a.17.17,0,0,1,0-.15s0-.05.08-.06a4.67,4.67,0,0,0,.83-.17,4.14,4.14,0,0,0,1-.45l-1.92-.65c-.06,0-.07-.07,0-.19l.11-.31c0-.08.06-.12.12-.09l1.66.55L33,27.6l-1.27-.42c-.06,0-.06-.08,0-.18l.11-.32c0-.08.06-.11.12-.09Zm-.31-2.39c-.1.3,0,.49.37.61l.83.28a.2.2,0,0,0,.26-.07c0-.05.1-.15.19-.31a1.33,1.33,0,0,0,.39.44.16.16,0,0,1,0,.19,1.34,1.34,0,0,1-.33.38c-.1.11-.29.11-.55,0L32.7,25.7c-.52-.18-.73-.46-.59-.85l.82-2.45c0-.09.09-.11.2-.07l2.33.78c.1,0,.15.09.12.17l-.51,1.54c0,.09-.1.11-.2.07L33,24.27Zm.28-.83,1.35.45.28-.83L33.44,23Zm1.68,5.4.29-.87-1.47-.5-.29.88Zm.73,1.66a3.68,3.68,0,0,0,.69.69.31.31,0,0,1,0,.12c0,.06-.2.17-.56.34a.1.1,0,0,1-.08-.05,7.1,7.1,0,0,1-1.2-1.61c0-.06,0-.08,0-.09s.2-.15.58-.29A4.87,4.87,0,0,0,35.57,30.85Zm.7-5.05c-.09.3,0,.5.37.61l.88.29a.31.31,0,0,0,.37-.05,1.66,1.66,0,0,0,.24-.32,1.5,1.5,0,0,0,.39.45.17.17,0,0,1,.06.19,1.64,1.64,0,0,1-.4.4c-.12.1-.33.1-.66,0l-1.43-.48c-.52-.18-.72-.46-.59-.85l.83-2.5c0-.08.09-.1.2-.07l2.38.8c.1,0,.14.09.11.17L38.5,26c0,.08-.09.11-.19.07l-1.9-.63Zm.3-.87L38,25.4l.28-.84-1.39-.46Z"/><path class="cls-2" d="M41,27.08l.47-1.42a2.44,2.44,0,0,0,.11-.46.43.43,0,0,1,0-.2c0-.05.09-.07.23,0l.77.38a.33.33,0,0,1,.08.13c0,.06-.07.08-.16.05s-.26.15-.34.4l-.46,1.38.87.29c.07,0,.09.1.06.2l-.11.32c0,.11-.1.15-.17.12L41.54,28l-.63,1.89c.35-.05.69-.11,1-.19,0,0,0,0,0,0a.08.08,0,0,1,.06.1,2.23,2.23,0,0,1-.23.54c-.39.1-.77.17-1.13.25l-1.07,3.2c-.16.46-.6.58-1.31.35l-.56-.19c-.06,0-.06-.09,0-.2a2,2,0,0,0,0-.52c0-.06,0-.08.1-.06a3.17,3.17,0,0,0,.65.31c.28.09.47,0,.55-.21l.84-2.52-1,.15c-.16.14-.26.21-.32.19s-.1-.34-.12-1A11.88,11.88,0,0,0,40.05,30h0l.75-2.25-1.1-.37c-.08,0-.11-.09-.07-.2l.11-.32c0-.1.09-.15.17-.12Zm5.49-.38c0,.06.06.1,0,.13s-.1.1-.2.07a.52.52,0,0,0-.25,0l-.19.06,2.26.75a.24.24,0,0,1,.14.1c.1.12.14.21.13.26l-1.19.61,1.64.55s.06.06,0,.15l-.08.24c0,.1-.09.14-.14.12L47,29.13l-.18.56c0,.08,0,.13,0,.14l1,.33c.12,0,.27,0,.46-.21l.41.5a.91.91,0,0,1-.9.31l-1.35-.45c-.29-.1-.39-.28-.3-.55l.27-.83-.72-.24a1.37,1.37,0,0,1-.17.28,1.47,1.47,0,0,1-.34.36,2.28,2.28,0,0,1-.35.17.94.94,0,0,1-.36.08,2.14,2.14,0,0,1-.5,0,4.56,4.56,0,0,1-.57-.08.11.11,0,0,1-.06-.16,2.48,2.48,0,0,1,0-.41h0l-.49,1.48L48,32.14c.06,0,.07.07.05.14l-.08.24c0,.1-.09.14-.14.13l-5.14-1.73a12.54,12.54,0,0,1-.74,1.68,5.46,5.46,0,0,1-.87,1.2,3.24,3.24,0,0,1-.7.62.23.23,0,0,1-.11-.06A1.64,1.64,0,0,0,40,34a.33.33,0,0,1,0-.14,3.58,3.58,0,0,0,.79-.75,7.91,7.91,0,0,0,.71-1.17,12.52,12.52,0,0,0,.67-1.67l1-2.88c0-.09.07-.12.15-.09l3.18,1.07.94-.44L45,27.13a1.31,1.31,0,0,1-.27,0l-.74.06c-.24,0-.43,0-.58,0a.13.13,0,0,1-.1-.12,1,1,0,0,0-.16-.39.31.31,0,0,1-.06-.12h0a6,6,0,0,0,.81,0,5,5,0,0,0,.93-.09,3,3,0,0,0,1-.33.17.17,0,0,1,.1,0Zm-.05,7.93c.1,0,.15.09.12.17L46,36.5c0,.08-.1.11-.2.07l-.4-.13a.11.11,0,0,1-.07-.16l.08-.24-3-1-.08.24c0,.08-.1.1-.2.07l-.4-.14c-.08,0-.1-.08-.08-.16l.57-1.7c0-.08.08-.11.16-.08Zm-.88.94.21-.64-3.05-1-.21.64Zm1-1.88c.05,0,.06.07,0,.15l-.08.23c0,.11-.09.15-.14.14L42.76,33c-.06,0-.06-.08,0-.19l.08-.23c0-.08.06-.12.11-.1Zm.3-.91s.07.07,0,.15l-.08.24c0,.1-.08.14-.13.12l-3.65-1.22c-.05,0-.05-.07,0-.17l.08-.25c0-.08.06-.11.11-.09ZM44.06,29a1.62,1.62,0,0,0,.44,0,2.58,2.58,0,0,0,.31-.13,1,1,0,0,0,.23-.18,1,1,0,0,0,.1-.15l-1.5-.5-.28.84A3.51,3.51,0,0,0,44.06,29Zm3.13,1.94c.05,0,.07.07,0,.14l-.08.24c0,.1-.08.14-.13.12l-3.08-1c-.06,0-.06-.08,0-.19L44,30c0-.07.06-.1.12-.08Z"/><path class="cls-2" d="M53.75,29.58c0,.06-.06.08-.1.06a.35.35,0,0,0-.28,0,11,11,0,0,1-1.53,1.53l-2.15,6.44c0,.08-.11.1-.23,0l-.4-.13c-.11,0-.15-.09-.12-.17L50.76,32l-1.09.62a.28.28,0,0,1-.18-.16c-.07-.12-.14-.24-.22-.36a.15.15,0,0,1,0-.15c.4-.21.8-.44,1.21-.68a7.86,7.86,0,0,0,1.49-1.16A8.5,8.5,0,0,0,53,28.84q0-.07.09-.06C53.54,29.26,53.77,29.53,53.75,29.58ZM58.28,32a8.36,8.36,0,0,1-2.13.06l-.77,2.32,2.72.91c.08,0,.1.1.07.2l-.1.31c0,.12-.1.15-.18.13L55.16,35l-1,3,2.41.81c.08,0,.1.1.07.2l-.1.32c0,.1-.1.15-.18.12L51,37.64c-.08,0-.1-.1-.07-.2l.11-.31c0-.11.09-.15.17-.13l2.17.73,1-3-2.57-.86c-.08,0-.09-.09-.06-.2l.11-.32c0-.1.08-.15.16-.12l2.58.86.73-2.19a12.32,12.32,0,0,1-1.9-.49c-.14,0-.21-.11-.21-.2a1.24,1.24,0,0,0,0-.47.28.28,0,0,1,0-.18,15.29,15.29,0,0,0,2.68.65,5.76,5.76,0,0,0,2.27-.06.42.42,0,0,1,.22,0,.21.21,0,0,1,.12.11c.28.44.41.71.38.8s-.11.19-.19.16L58.5,32A.61.61,0,0,0,58.28,32Z"/><path class="cls-2" d="M24.37,33.78c.1,0,.15.09.13.16l-2.89,8.64q0,.12-.21.06L21,42.51c-.11,0-.15-.09-.12-.17L21,42l-7-2.33-.11.32c0,.08-.1.1-.2.06l-.39-.13c-.1,0-.14-.09-.11-.17l2.88-8.64c0-.07.09-.09.19-.06Zm-3.16,7.6,2.41-7.2-7-2.33-2.41,7.2Zm-2.75-3.11a1.89,1.89,0,0,1-.2.5c-.91,0-1.81-.11-2.71-.2-.17.15-.27.22-.33.2s-.09-.32-.09-.92a14.52,14.52,0,0,0,1.52.18c.6.06,1.17.09,1.72.1h.06S18.49,38.19,18.46,38.27Zm.63-2.91c.1,0,.15.09.12.16l-.68,2c0,.08-.09.09-.19.06L16,36.81c-.11,0-.15-.08-.12-.16l.68-2c0-.07.08-.1.2-.06Zm1.07-1c.06-.22.12-.44.2-.69,0-.08.06-.11.12-.09l.61.26c.11,0,.16.08.14.13s-.07.13-.13.13-.12.1-.17.25l-.08.24,1.3.44c-.11-.2-.24-.38-.36-.56a2,2,0,0,0-.31-.33,2.38,2.38,0,0,1,.41-.33c.05,0,.08,0,.11,0,.16.19.3.35.4.48l.29.46-.07.06-.4.27.68.23c.05,0,.07.07.05.14l-.11.31c0,.11-.08.15-.13.14l-2.05-.69c-.13.39-.22.72-.29,1a7.59,7.59,0,0,0-.22,1.41c0,.2,0,.39,0,.54a5.88,5.88,0,0,0,.64-.67,7.89,7.89,0,0,0,.72-1,.1.1,0,0,1,.13-.06c.47.36.69.57.67.62a.16.16,0,0,1-.17.12.2.2,0,0,0-.21,0,10.41,10.41,0,0,1-1,1.25,8.72,8.72,0,0,1-.69.59,1.76,1.76,0,0,0,.15.59.52.52,0,0,0,.22.21s.11,0,.23-.13a3.64,3.64,0,0,0,.43-.53s.06.06.08.13a1.23,1.23,0,0,0,.18.43.25.25,0,0,1,0,.25,4.79,4.79,0,0,1-.61.57c-.27.19-.47.25-.61.21a.71.71,0,0,1-.22-.13,1.54,1.54,0,0,1-.32-.5,3.3,3.3,0,0,1-.22-.69,6.17,6.17,0,0,1-1.26.52h-.13a.2.2,0,0,1-.15-.18,3.73,3.73,0,0,0-.16-.35.14.14,0,0,1,0-.16s0,0,.08,0A2.25,2.25,0,0,0,18.5,39a3.61,3.61,0,0,0,.94-.43,6.46,6.46,0,0,1,0-.88,10.56,10.56,0,0,1,.25-1.63A10.82,10.82,0,0,1,20,34.94l-3.33-1.11s-.06-.08,0-.19l.1-.31c0-.07.06-.11.11-.09Zm-1.79,1.42L17,35.32l-.36,1.08,1.34.44Z"/><path class="cls-2" d="M30.48,39.17a14.22,14.22,0,0,0-.43,1.66l3,1c.08,0,.11.09.07.2l-.11.32c0,.1-.09.14-.17.11L30,41.5a4.19,4.19,0,0,0,0,1,3.6,3.6,0,0,0,.31,1.13,3.11,3.11,0,0,0,.41.84,1.16,1.16,0,0,0,.49.52c.09,0,.2,0,.36-.17a4,4,0,0,0,.63-1c0-.07.09-.1.13-.08a.14.14,0,0,1,.09.08,2.17,2.17,0,0,0,.27.26c.06.08.1.14.09.16A7.51,7.51,0,0,1,32,45.51c-.32.34-.6.47-.83.39a1.25,1.25,0,0,1-.38-.24,2.11,2.11,0,0,1-.42-.47,6.6,6.6,0,0,1-.62-1,7.66,7.66,0,0,1-.35-1.09c-.06-.43-.09-.77-.1-1s0-.52,0-.76L26,40.17l-.84,2.51.42,0c.93.08,1.81.11,2.67.11a.11.11,0,0,1,.08,0c.05,0,.07.07.05.15a2.34,2.34,0,0,1-.25.58c-1.47,0-2.95-.13-4.44-.25-.18.14-.3.2-.38.18s-.09-.36-.1-1c.36,0,.75.11,1.19.15L27,34.83a.14.14,0,0,1,.2-.1L34,37c.1,0,.15.1.13.17l-.89,2.65a.16.16,0,0,1-.22.11l-2.48-.83Zm-4.26.37,3.16,1.06a15.1,15.1,0,0,1,.43-1.75l-3-1ZM27,37.2l5.67,1.9.56-1.66-5.67-1.9Z"/><path class="cls-2" d="M36.75,42.9a6,6,0,0,1,0,.67.24.24,0,0,1-.11.13c-.62.71-1.18,1.3-1.67,1.76a12.45,12.45,0,0,1-1,.86,1,1,0,0,0-.19.36q0,.12-.12.09a2.71,2.71,0,0,1-.44-.85.17.17,0,0,1,0-.14.19.19,0,0,1,.1-.13,5.18,5.18,0,0,0,.88-.57,14.57,14.57,0,0,0,1.31-1.16c.39-.39.73-.74,1-1.07a.16.16,0,0,1,.11-.07S36.75,42.83,36.75,42.9Zm-.17-2.06c.26.31.47.57.64.8,0,0,0,0-.07.06L36.7,42a10.87,10.87,0,0,0-.88-1c-.27-.27-.5-.47-.68-.63A2.48,2.48,0,0,1,35.6,40s.08,0,.1,0A9.19,9.19,0,0,1,36.58,40.84ZM40,44.15c.44.44.66.69.64.76s-.06.05-.14,0a.27.27,0,0,0-.27,0L38,46.77c1,.24,2.17.52,3.57.8a11.36,11.36,0,0,0-.4-1.81,1.78,1.78,0,0,1,.71-.16,17.53,17.53,0,0,1,.44,2.09,10.09,10.09,0,0,1,.12,1.75,2.88,2.88,0,0,1-.79,0,6.26,6.26,0,0,0,0-1.22c-2.6-.43-4.28-.72-5.05-.88a.15.15,0,0,0-.2.07c-.07.09-.14.13-.22.11s-.08-.45,0-1.24a10,10,0,0,0,1,.28c.83-.7,1.37-1.17,1.62-1.4a10.2,10.2,0,0,0,.95-1.06.16.16,0,0,1,.16,0A.46.46,0,0,1,40,44.15Zm-2.21-5.4c.23.3.42.58.59.81a.19.19,0,0,1-.08.08l-.45.32a10.48,10.48,0,0,0-.81-1.08,6.1,6.1,0,0,0-.64-.63,1.75,1.75,0,0,1,.46-.34.19.19,0,0,1,.11,0C37.33,38.2,37.6,38.5,37.81,38.75ZM41.19,41l.55-1.66c0-.07.09-.1.2-.06.5.17.74.29.71.36s-.08.13-.15.12-.13,0-.17.17l-.44,1.31,2.47.82c.07,0,.09.1.06.2l-.11.31c0,.12-.1.15-.17.13l-2.46-.82-.61,1.82,2.74.92c.08,0,.1.09.07.19l-.11.31c0,.11-.09.15-.17.12l-6.1-2c-.08,0-.1-.09-.06-.2l.1-.31c0-.1.09-.14.17-.12l2.65.89L41,41.62l-2.29-.77c-.08,0-.1-.09-.07-.2l.11-.31c0-.11.09-.15.18-.13Z"/><path class="cls-2" d="M52.56,45.76c.1,0,.15.09.13.17l-.75,2.22a.15.15,0,0,1-.21.1l-4.47-1.5-.32,1,5,1.65c.1,0,.15.1.12.18l-.91,2.72c0,.08-.11.1-.21.07l-.39-.13c-.1,0-.14-.09-.11-.17l.12-.36-4.4-1.47-.22.64c0,.07-.09.09-.2,0l-.39-.13c-.1,0-.14-.09-.11-.16l2.14-6.42a.15.15,0,0,1,.21-.11ZM51.5,42.49c0,.1-.09.14-.15.12s-.13.06-.17.18l-.23.67,3.8,1.27c.1,0,.15.09.13.18l-.67,2c0,.08-.1.1-.2.07l-.39-.13c-.1,0-.14-.09-.12-.18L54,45.18l-7.32-2.45-.5,1.5c0,.09-.1.11-.2.07l-.4-.13c-.1,0-.14-.09-.12-.17l.67-2c0-.1.1-.15.2-.11l3.88,1.3.35-1c0-.07.09-.09.2-.05C51.28,42.29,51.53,42.42,51.5,42.49ZM50.72,51l.41-1.23-4.4-1.47-.41,1.23Zm.67-3.6.41-1.23L47.88,44.9l-.41,1.22Z"/></svg>