<svg id="圖層_1" data-name="圖層 1" xmlns="http://www.w3.org/2000/svg" viewBox="0 0 300 45"><defs><style>.cls-1{fill:#0062c6;}</style></defs><path class="cls-1" d="M13.21,9.71a39.4,39.4,0,0,1-6.45,3.71.73.73,0,0,1-.43.43L5.18,11.38c.51-.07,1.2-.21,2-.38L7.05,1.29l2.84.2c0,.21-.11.38-.55.44l.14,8.56c1.19-.27,2.47-.59,3.69-.93ZM19,1.59c0,.25-.22.43-.6.47-.14,3.37-.28,6.13-1.69,8.31,4.82,1.54,3.35,5.36,1.17,4a12.87,12.87,0,0,0-1.75-3.17C14.74,12.78,12.44,14,8.6,15l-.11-.23c7.28-3.35,7.38-7.18,7.46-13.4ZM10.61,3.08c5.45,1.26,3.62,5.39,1.51,3.81a11.5,11.5,0,0,0-1.63-3.73Z"/><path class="cls-1" d="M26.58,4.94c-.07.17-.21.28-.59.25a19.58,19.58,0,0,1-1.43,1.62l.87.32c0,.14-.18.25-.47.31v6.84a2.31,2.31,0,0,1-1.75.68h-.4V8.36A13.48,13.48,0,0,1,21,9.57l-.12-.13A20.31,20.31,0,0,0,24,3.64Zm-.29-3.22c-.07.15-.21.26-.58.21a13.83,13.83,0,0,1-4.63,3L21,4.77A15.57,15.57,0,0,0,23.78.35Zm7.57,11s1.18,1,1.87,1.63c0,.17-.22.24-.45.24H25.65l-.13-.43H29V9.2H26.28l-.13-.42H29V4.53H25.88l-.12-.43h6.78l1-1.42s1.17,1,1.83,1.6c0,.17-.2.25-.43.25H31.26V8.78h1.17l1-1.39s1.13.94,1.79,1.57c0,.17-.2.24-.43.24H31.26v4.91h1.55ZM27.47.69c5.77-.49,4.53,4.16,2.2,3A5.41,5.41,0,0,0,27.38.8Z"/><path class="cls-1" d="M51.48,6.38c-.12.14-.27.17-.59.2A15.68,15.68,0,0,1,48.22,8l-.1-.09c.16-.48.34-1.2.47-1.77H39.36a2.09,2.09,0,0,1-.86,2.41,1.1,1.1,0,0,1-1.59-.63,1.18,1.18,0,0,1,.83-1.41,2,2,0,0,0,.89-1.89h.18a6.63,6.63,0,0,1,.46,1.1h6.89a24.13,24.13,0,0,0,1-3.22l2.92,1c-.08.18-.25.3-.6.27a23.78,23.78,0,0,1-2.76,2h1.78L49.6,4.6ZM48.91,8.67c-.13.18-.28.23-.69.27a10.29,10.29,0,0,1-2.4,2.78,24,24,0,0,0,5.56.88l0,.2A2.61,2.61,0,0,0,49.51,15a13.81,13.81,0,0,1-5.39-2.07A18.15,18.15,0,0,1,36.94,15l-.06-.19a16.73,16.73,0,0,0,6.06-2.88,8.85,8.85,0,0,1-2.06-3.44H39.32L39.18,8h6.55L47,6.89ZM39.5,2.82H37.58l0-.24A63.92,63.92,0,0,0,48,.34l1.89,1.93c-.18.15-.55.15-1.09-.06-1.49.2-3.42.37-5.48.47,3.69,1.06,1.55,4-.06,2.44a5.39,5.39,0,0,0-.5-2.41c-1,0-2.08.1-3.1.11,4.18.78,2.05,4,.36,2.43a4.78,4.78,0,0,0-.62-2.38Zm1.67,5.63A6.7,6.7,0,0,0,44,11a9.57,9.57,0,0,0,1.79-2.52Z"/><path class="cls-1" d="M59.26.38s1.17,1,1.86,1.61c0,.17-.21.25-.44.25h-5l2.35.52c0,.17-.2.31-.49.34a14.2,14.2,0,0,1-3.13,2.22c1.08,0,2.61-.1,4.22-.18a5.69,5.69,0,0,0-1-1.7l.14-.1c4.78,1.09,3,4.87,1.13,3.35a4.11,4.11,0,0,0-.17-1.08c-.72.28-1.64.63-2.7,1l2.14.17c0,.2-.11.34-.49.4v1.7h.33l1-1.44s1.14,1,1.78,1.63c0,.17-.21.24-.43.24H57.78v2.14L61,11l0,.16a57.93,57.93,0,0,1-7,3,.75.75,0,0,1-.48.38l-1-2.58c.64,0,1.7-.15,3-.3V9.31H53l-.13-.43h2.8V6.8c-.43.13-.89.29-1.35.44a1.21,1.21,0,0,1-.42.37l-1-2.35a2.43,2.43,0,0,0,.55-.15,7,7,0,0,0,1.84-2.87H52.87l-.13-.43h5.5Zm4.05,10.53a2.43,2.43,0,0,1-1.62.54h-.37V1.61l2.55.23c0,.22-.14.37-.56.43ZM67,.75c0,.23-.17.38-.56.45V12.58c0,1.43-.32,2.21-2.65,2.41a2.76,2.76,0,0,0-.41-1.49A2.2,2.2,0,0,0,62,12.8v-.2s1.73.1,2.1.1.32-.09.32-.27V.51Z"/><path class="cls-1" d="M81.88,9.48s.83.81,1.27,1.35c0,.17-.18.25-.4.25H73l2.36,1.15c-.1.2-.38.32-.93.26a15.25,15.25,0,0,1-6,2.45l-.06-.15a12.6,12.6,0,0,0,4.19-3.71H68.25l-.12-.43h1.44l-.23-9.48L71,1.59c.3-.47.59-1,.73-1.28L73.29,1.9c-.11.12-.28.12-.53,0a11.69,11.69,0,0,1-1.42.32l.06,2.44.51-.92s.33.37.64.75V2.91l1.57.63h.46V2.68h-2l-.13-.43h2.14V.47l2.25.22c0,.18-.14.34-.51.38V2.25h.25l.78-1s.88.67,1.43,1.15c0,.17-.2.24-.42.24h-2v.86h.43l.69-.7,1.4,1.06a.8.8,0,0,1-.41.21V7.39c0,.08-.26.2-.57.3.31.23.83.64,1.2,1,0,.17-.2.25-.42.25H76.32v1.18c0,.15-.76.52-1.42.52h-.32V8.9H72.3l-.12-.43h2.4V7.15H74V7.5c0,.12-.54.42-1.12.46a.36.36,0,0,1-.37.2H71.49l.06,2.49h7.81l.09-2.52h-.87l-.14-.43h1l.1-2.53h-.79l-.13-.43h.93l.08-2.61h-1l-.14-.43h1L80.33.64l1.92,1.57c-.13.15-.26.21-.62.27l-.24,7.8ZM71.41,5.17l.07,2.38.46-.86.61.72V5.17H71.41ZM74,4V5.15h.54V4Zm.54,2.75V5.58H74V6.72ZM76.32,4V5.15h.56V4Zm.56,1.61h-.56V6.72h.56Zm.47,2.21a.71.71,0,0,1-.2,0h-.27V7.15h-.56V8.47h.48Zm-.93,3.75c9.23.53,5.44,4.72,3.6,3a8.26,8.26,0,0,0-3.67-2.8Z"/><path class="cls-1" d="M88.87,2.45s.86.69,1.39,1.19a.38.38,0,0,1-.4.24H84.12L84,3.45h4.12Zm-1.32,3,.71-1s.83.66,1.32,1.13a.37.37,0,0,1-.4.25H84.62L84.5,5.4Zm.79,1s.81.66,1.3,1.14c0,.17-.18.24-.38.24H84.62l-.12-.43h3.12Zm-.13,2L89.9,9.76a.85.85,0,0,1-.49.26v3.51a2.59,2.59,0,0,1-1.56.54h-.33v-.8h-1v1c0,.17-.8.59-1.6.59h-.26V8.61l1.9.75h.85ZM85.41.75c4.48-.17,2.76,3.35.89,2.1a4.11,4.11,0,0,0-1-2Zm2.11,12.09V9.79h-1v3.05ZM98.86,4.05v.23a2.74,2.74,0,0,0-1.41,2,8.8,8.8,0,0,1-3.24-4.2,13.53,13.53,0,0,1-5.06,4.57L89,6.52A16.1,16.1,0,0,0,92.4.32l2.72,1c-.06.2-.26.32-.71.34C95.33,3,97.28,3.76,98.86,4.05ZM96.38,6.32,98.1,7.61a1,1,0,0,1-.5.26V13c0,1.22-.21,1.81-1.94,1.95a3.87,3.87,0,0,0-.11-1.18.71.71,0,0,0-.34-.43,1.78,1.78,0,0,1-.95.23H94V10.59h-.41v2.82a1.55,1.55,0,0,1-1.08.32h-.21V10.59H91.9v3.66c0,.19-.79.62-1.58.62H90V6.43L92,7.21h3.6ZM94.46,4.23S95.43,5,96,5.54c-.05.17-.2.24-.42.24H91.47l-.13-.43H93.6Zm-2.13,5.93V7.64H91.9v2.52Zm1.7,0V7.64h-.41v2.52Zm1.29-2.52v2.52h.41V7.64Zm.21,5.4c.17,0,.2-.08.2-.23V10.59h-.41V13Z"/><path class="cls-1" d="M105.55,6.37c-.52.4-1.21.92-2.09,1.53v4.48c0,1.49-.27,2.32-2.47,2.53a3.82,3.82,0,0,0-.32-1.62,1.51,1.51,0,0,0-1.19-.74v-.22s1.32.08,1.62.08.29-.08.29-.23V9.25l-.66.42a.74.74,0,0,1-.44.44l-.74-2.42c.39-.08,1-.22,1.84-.42V4.48H99.8l-.12-.43h1.71V.37L104,.61c0,.23-.18.39-.57.43V4l.8-1.3s.94.94,1.45,1.53c0,.17-.2.25-.42.25h-1.83V6.77l2.06-.54Zm7,1s1.18.92,1.89,1.55c0,.17-.22.24-.43.24h-3.62v5.25c0,.14-.63.57-1.72.57h-.4V9.11H104.4l-.12-.43h4V2.39H105.4L105.28,2h5.63L112,.54s1.22,1,1.94,1.61c0,.17-.21.24-.43.24h-3.14V8.68h1.12Zm-6.79-3.73c4.14,2.13,2.2,5.57.55,3.9a11.38,11.38,0,0,0-.72-3.84ZM110.51,8a21.37,21.37,0,0,0,1.07-4.62l2.36,1.18c-.07.15-.21.26-.59.23a14.89,14.89,0,0,1-2.69,3.34Z"/><path class="cls-1" d="M127.68,9.34a.68.68,0,0,1-.54.1c.34.23,1.12.78,1.64,1.19a.33.33,0,0,1-.25.23c.39.26,1.09.78,1.6,1.2,0,.17-.21.24-.43.24h-5.84v.46c0,1.29-.33,2-2.6,2.15a2.32,2.32,0,0,0-.3-1.27,1.81,1.81,0,0,0-1.25-.58v-.19s1.37.09,1.69.09.28-.1.28-.24V12.3H115.6l-.12-.43h6.2v-1h-4.93l-.12-.43h5.05V9.56c-1.71,0-3.47,0-5.1-.11V9.2a45.47,45.47,0,0,0,9.37-1.7Zm-8.89-4h-.67a2.06,2.06,0,0,1-1.41.48h-.23V2.1l1.71.68h.6V2.07H116l-.12-.43h2.94V.34l2.35.24c0,.19-.14.32-.49.39v.67h.69l.81-1.06s.92.72,1.47,1.24c0,.17-.19.25-.39.25h-1.35l1.45,1.06a.67.67,0,0,1-.36.2V5.17l.09-.12s.67.58,1.06,1c0,.17-.19.25-.39.25h-3.08V7.58h.77V6.37l2.14.18c0,.17-.1.29-.43.34V8a2.51,2.51,0,0,1-1.41.36h-.3V8h-3.29l-.49.6-1.73-.77a2.9,2.9,0,0,1,.47-.45v-1l2.23.23c0,.22-.17.37-.55.42v.58h.73V6.29h-3.11l-.13-.43h3.24Zm-.67-2.13v.64h.67V3.21Zm.67,1.7V4.28h-.67v.63Zm1.86-2.13h.49l.71-.71h-1.2Zm.6.43h-.6v.64h.6Zm-.6,1.07v.63h.6V4.28Zm2.28.94a2.86,2.86,0,0,1-1.38.41h-.3V5.34h-.6v.52h1.82Zm.08-.91a3.59,3.59,0,0,0,.75-2.59V.38l2,.71h.65l.79-.83,1.46,1.18a.9.9,0,0,1-.53.2v.8c0,.14,0,.2.13.2h.25a1.23,1.23,0,0,0,.27,0,1.88,1.88,0,0,0,.31-.06h.14l.08,0c.35.17.47.28.47.54,0,.54-.41.72-1.32.75l1.05.84c-.1.14-.23.19-.56.22a4.42,4.42,0,0,1-1.33,1.43A15.61,15.61,0,0,0,130,6.7v.17a1.81,1.81,0,0,0-1.17,1.57A9.31,9.31,0,0,1,126,7.21a11.7,11.7,0,0,1-2.74.66l-.08-.2a7.75,7.75,0,0,0,2.09-1.07A5.35,5.35,0,0,1,124,4.72h-.51l-.11-.35-.27.09Zm2.46-2.59a2.75,2.75,0,0,1-1.89,2.58h3.22l.46-.43c-.66-.1-.72-.45-.72-1.16V1.52h-1.07Zm-1.61,8.73H126l.92-1.08-.28-.1c-.81.09-1.76.17-2.77.21Zm3.42,1.42.84-1h-4.26v1Zm-2.87-7.15a4.21,4.21,0,0,0,1.64,1.16,4.2,4.2,0,0,0,.75-1.16Z"/><path class="cls-1" d="M145.78,3.87a1,1,0,0,1-.69.32c-.11,6.44-.29,8.93-1.2,9.86a3.12,3.12,0,0,1-2.45.86,2.26,2.26,0,0,0-.37-1.53,3,3,0,0,0-1.66-.78l0-.19c.73.06,1.78.12,2.18.12a.73.73,0,0,0,.56-.2c.56-.49.69-3.31.79-8.53h-2.37A11.71,11.71,0,0,1,137.79,7l-.1-.06v6.21a3,3,0,0,1-1.73.57h-.34V12.55h-1.88v1.06c0,.23-.79.7-1.68.7h-.32V2.59l1.93.8c.08-.86.14-2.07.19-2.95l3,.71c-.08.28-.29.38-.66.38-.46.54-1.15,1.31-1.7,1.91h1l.95-1.06,1.89,1.49a1.12,1.12,0,0,1-.62.33V6.77a26.65,26.65,0,0,0,1.8-6.36l2.85.83c-.06.2-.26.32-.61.32a13.21,13.21,0,0,1-.88,1.81h1.92l1.15-1.16Zm-12,0v3.8h1.88V3.87Zm1.88,8.25v-4h-1.88v4Zm3.18-5.63c4.85,1.12,2.78,4.88.89,3.24a6.74,6.74,0,0,0-1-3.16Z"/><path class="cls-1" d="M159.48,12.83c.32.24,1.27,1,1.89,1.53-.05.17-.22.25-.45.25H147.13l-.12-.43h6V12.83h-4.67l-.12-.43H153V11.15h-1.54v.2c0,.2-1,.68-1.92.68h-.3V6.54l2.34.89h5l.91-1H147.31L147.19,6h11.08l1-1.32s1.15.89,1.84,1.5c0,.17-.21.25-.43.25h-3l2,1.46a1.11,1.11,0,0,1-.66.38v2.85a1.1,1.1,0,0,1-.31.16c.4.32,1.09.89,1.57,1.3a.4.4,0,0,1-.43.25Zm-7.87-7.74c0,.2-1,.66-1.87.66h-.31V.52l2.3.88h4.71l.95-1.06,2,1.5a1,1,0,0,1-.6.34V5A4.14,4.14,0,0,1,157,5.4h-.38V5h-5Zm-.17,2.76V9.07H153V7.85ZM153,10.72V9.5h-1.54v1.22Zm-1.37-8.9V2.93h5V1.82Zm5,2.72V3.36h-5V4.54Zm-1.48,3.31V9.07h1.58V7.85ZM156.7,9.5h-1.58v1.22h1.58Zm-1.58,2.9h2.14l.72-.94a5,5,0,0,1-.89.11h-.39v-.42h-1.58Zm3.18,1.78,1-1.35h-4.21v1.35Z"/><path class="cls-1" d="M173.2,10.65a2.48,2.48,0,0,1-1.66.55h-.37V7.44a.32.32,0,0,1-.14,0h-1.58v6.88c0,.14-.63.59-1.72.59h-.39V7.46h-1.2c0,2.74-.2,5.55-3.51,7.44l-.14-.09c1.49-2,1.59-4.62,1.59-7.35h-1.47L162.49,7h1.59V2.21h-1.29l-.12-.43h5.77l1-1.38s1.06.87,1.72,1.5V1.64l2.59.23c0,.22-.15.38-.56.45ZM167.34,7V2.21h-1.2V7Zm2.73-1.46s.63.69,1.1,1.29V2.09a.44.44,0,0,1-.35.12h-1.37V6.69ZM177,.83c0,.23-.18.37-.57.43V12.37c0,1.48-.33,2.28-2.74,2.5a2.84,2.84,0,0,0-.42-1.57,2.06,2.06,0,0,0-1.44-.73v-.2s1.7.1,2.07.1.32-.07.32-.26V.57Z"/><path class="cls-1" d="M181,5.72v8.44c0,.26-.78.78-1.73.78h-.36V.61l2.15.91h1.81l.89-.95,1.83,1.36a.84.84,0,0,1-.55.29V6.41a3.48,3.48,0,0,1-1.66.46H183V5.72ZM181,2V3.39h2V2Zm2,3.34V3.82h-2V5.29ZM188.68,12a3,3,0,0,1-1.71.56h-.36v-.93h-2.34v.63c0,.19-.9.63-1.74.63h-.3V7.23l2.11.81h2.11l.92-1,1.86,1.4a.93.93,0,0,1-.55.29Zm-2.07-.8V8.47h-2.34v2.74ZM192.76,2a1.05,1.05,0,0,1-.6.33V12.64c0,1.35-.31,2-2.47,2.2a2.68,2.68,0,0,0-.28-1.34,1.44,1.44,0,0,0-1.07-.6v-.2s1.14.08,1.41.08.28-.12.28-.29V5.72H188v.34c0,.18-.87.63-1.72.63H186V.7l2.09.82h1.82l1-1.09ZM188,2V3.39H190V2ZM190,5.29V3.82H188V5.29Z"/><path class="cls-1" d="M199,12.6a20.66,20.66,0,0,0,3.42.21c1.38,0,4.76,0,6.23,0V13a1.64,1.64,0,0,0-1.12,1.67h-5.16c-3.26,0-5.11-.55-6.23-2.73a6.25,6.25,0,0,1-2,3.07l-.12-.17a13.06,13.06,0,0,0,.87-6L197,9V7.85h-2.94L194,7.43h5.34l.62-.8a5.26,5.26,0,0,1-.75.09h-.36V6h-1.93v.4c0,.18-.87.63-1.7.63h-.29V.63l2.07.8h1.68l.92-1L201,1.49h5.15l.91-1.17s1,.8,1.62,1.35c0,.17-.2.25-.41.25h-2.65c-.33.47-.73,1-1.06,1.39h.78l.89-1L208,3.73a.76.76,0,0,1-.47.24v5.6a3.23,3.23,0,0,1-1.72.52h-.35V9.63h-1.71v.11c0,.09-.15.22-.38.34l1.75.81c-.11.19-.35.29-.86.25a8,8,0,0,1-3.88,1.44l-.06-.17a6.15,6.15,0,0,0,2-2h-.59V7.81a.5.5,0,0,1-.23,0H199V10h.15L200,8.73s1,.87,1.48,1.46c0,.17-.2.24-.4.24H199Zm-2-3.27a.8.8,0,0,1-.35.11,11.14,11.14,0,0,1-.31,1.77,4.29,4.29,0,0,0,.66.62Zm-.15-7.47V3.51h1.93V1.86Zm1.93,3.71V3.94h-1.93V5.57Zm2,.69s-.1.11-.27.17c.3.26.8.66,1.19,1v-5l1.71.68c0-.38.06-.86.06-1.24h-2.07a1.27,1.27,0,0,1-.62.3Zm2.93-2.52V5.28h1.71V3.74Zm1.71,2h-1.71V7.24h1.71Zm0,3.49V7.67h-1.71V9.2Zm-.72.85c6.23.29,3,3.67,1.73,2a3.61,3.61,0,0,0-1.81-1.87Z"/><path class="cls-1" d="M211.8,9.65a3.12,3.12,0,0,0,1.78-2.19c-.92-.36-1.74-.77-1.74-1.68a1.34,1.34,0,0,1,1.37-1.32,1.5,1.5,0,0,1,1.46,1.69,4.3,4.3,0,0,1-2.61,4Z"/><path class="cls-1" d="M223.6.64c0,.22-.14.37-.57.43V14.22c0,.22-.89.72-1.67.72H221V8.32h-.39c-.07,2.68-.44,4.92-2.67,6.44l-.16-.2c.95-1.76.92-3.87.9-6.24h-.8l-.14-.43H221v-2h-.66l-.46.61L218,5.68a2,2,0,0,1,.3-.39V1l2.47.25c0,.17-.17.29-.55.35V5.43H221v-5Zm2.79,3.92c-.4.39-1.06,1-2,1.82a.54.54,0,0,1-.37.4L223.12,5c.58-.09,1.93-.34,3.24-.61Zm4.76,2.08s1,1.05,1.48,1.71c0,.16-.2.24-.41.24h-2v4c0,1.4-.33,2.15-2.68,2.35a2.4,2.4,0,0,0-.43-1.43,2.24,2.24,0,0,0-1.5-.69V12.6s1.84.1,2.19.1.31-.07.31-.26V8.59h-4.77l-.13-.43h4.9v-2a15.23,15.23,0,0,1-4.74,1.67l-.11-.18a14.38,14.38,0,0,0,4.25-2.79,1,1,0,0,1-.89-.06,3.47,3.47,0,0,0-1-1.52,11,11,0,0,1-2.37,1.24l-.1-.12a11.58,11.58,0,0,0,2.65-4l2.79.69c-.06.17-.18.24-.61.21-.25.28-.52.55-.81.82h2.3l1-1,2,1.59c-.13.16-.36.22-.76.25a11.17,11.17,0,0,1-3.49,3.21l2.5.21c0,.23-.19.35-.53.4V8.16h.07Zm-7,2.23c4.41.66,2.64,4,.92,2.68a5.19,5.19,0,0,0-1-2.61Zm2.57-6.35c-.19.15-.37.3-.57.44,1.67,0,2.08.84,1.87,1.43a11.26,11.26,0,0,0,1.4-1.87Z"/><path class="cls-1" d="M242.36,5.61c-.05.14-.17.25-.47.3v8.57a3.61,3.61,0,0,1-1.85.46h-.43V7.43a19.37,19.37,0,0,1-6,4.61l-.09-.12a19.91,19.91,0,0,0,6.36-9.54h-6L233.68,2h10.78L245.74.34s1.42,1.07,2.28,1.79c0,.17-.21.25-.46.25h-4.77a16.46,16.46,0,0,1-1.49,2.84Zm0,.68c7.27,1,6.21,5.77,3.81,4.59a15.53,15.53,0,0,0-3.93-4.48Z"/><path class="cls-1" d="M263.12,9.91c-.11.15-.26.22-.63.25a8.23,8.23,0,0,1-1.83,2.08,22.93,22.93,0,0,0,3.27.52V13a2.36,2.36,0,0,0-1.71,2,15,15,0,0,1-3.6-1.38,16,16,0,0,1-5.13,1.39l-.07-.2a13.5,13.5,0,0,0,4.06-1.91,8.4,8.4,0,0,1-1.55-1.49,9.66,9.66,0,0,1-1.75,1.07l-.12-.11a8.35,8.35,0,0,0,1.26-1.81,10.56,10.56,0,0,1-.86-1.75l.17-.12a6.08,6.08,0,0,0,1,1.26,13.32,13.32,0,0,0,.66-1.66,2.84,2.84,0,0,1-.72.1h-.28v-3a9.33,9.33,0,0,1-1,.89l-.18-.11c.11-.26.21-.54.32-.83a16.28,16.28,0,0,1-1.24,1.31l.78.29c-.05.13-.17.23-.48.29v7.09c0,.2-.81.75-1.74.75h-.4V8.08a12.87,12.87,0,0,1-2.09,1.31l-.12-.14a21.09,21.09,0,0,0,3.34-5.69l2.12,1.2a24.73,24.73,0,0,0,1-4.41l2.79.75c-.06.22-.26.34-.62.36-.1.24-.21.49-.33.73h3.42L261.91.7s1.24,1,2,1.68c0,.17-.21.24-.43.24h-6.26a9.25,9.25,0,0,1-.54.92l.76.29h3.1l.9-1,1.9,1.42a1,1,0,0,1-.61.34v3A3.23,3.23,0,0,1,261,8.1h-.35V7.69H257.3s-.07.12-.18.2l2,.45c-.05.16-.17.24-.59.23a7.52,7.52,0,0,1-.57.76h2.14l1.18-1.07Zm-8.26-8c-.07.14-.23.25-.59.19A17.25,17.25,0,0,1,249.36,5l-.11-.14A17.74,17.74,0,0,0,252.41.37Zm2.74,7.87a11.28,11.28,0,0,1-.91.92,11.21,11.21,0,0,0,2.09,1,7.77,7.77,0,0,0,1.33-1.92Zm-.3-5.51V5.52h3.35V4.26Zm3.35,3V6H257.3V7.26Z"/><path class="cls-1" d="M277.13,1.49s1.39,1,2.22,1.75c0,.17-.23.24-.46.24h-7.53a17.76,17.76,0,0,1-1.75,2.83l.81.3c-.06.14-.18.23-.47.29v7.15a2,2,0,0,1-1.78.89h-.42V8.33a12.51,12.51,0,0,1-2.51,1.73l-.14-.13a16.62,16.62,0,0,0,4-6.45h-3.47l-.12-.43h3.74A22.87,22.87,0,0,0,270,.29l2.85.94c-.06.17-.2.3-.6.3-.18.49-.4,1-.64,1.52h4.34Zm0,6.29s1.25.93,2,1.58c-.05.17-.22.24-.45.24h-3.22v2.84c0,1.48-.35,2.27-2.82,2.49a3,3,0,0,0-.43-1.55,2.31,2.31,0,0,0-1.52-.72v-.2s1.87.12,2.22.12.29-.08.29-.25V9.6h-2.91l-.12-.43h3V7.39l1.34.11a14.73,14.73,0,0,0,1-1.79H271l-.14-.43h4.65l1.15-1.12L278.52,6c-.12.14-.27.18-.61.21a17.1,17.1,0,0,1-2.55,1.38l.59.05c0,.24-.19.35-.51.4V9.17H276Z"/><path class="cls-1" d="M285.83,7.35c-.07.15-.2.24-.5.31v6.65a2.8,2.8,0,0,1-1.82.59h-.43V9.2a13.57,13.57,0,0,1-2.35,1.48l-.12-.14A16.66,16.66,0,0,0,284.83,4H281.1L281,3.6h4a22.12,22.12,0,0,0,.91-3.28l3.1.78c-.05.19-.19.33-.59.36a20,20,0,0,1-.9,2.14h4.13L292.87,2s1.39,1.06,2.24,1.77c-.05.17-.22.24-.45.24h-7.38a16.63,16.63,0,0,1-2,3.1Zm7.3,4.63s1.32,1,2.13,1.67c0,.17-.23.25-.46.25h-9.22l-.12-.43h3.13V8.76H286l-.12-.43h2.75V4.69l2.74.23c0,.2-.12.34-.49.4v3h.42L292.35,7s1.22.92,2,1.56c0,.17-.21.25-.43.25h-3v4.71H292Z"/><path class="cls-1" d="M8,29.37a20.65,20.65,0,0,1-3,2.34l-.26-.18A40.84,40.84,0,0,0,9.39,19.94l5,1.74c-.13.34-.47.54-1.09.52a24.94,24.94,0,0,1-1.93,3.27l1.25.47c-.08.24-.34.42-.81.5V34.6a4.71,4.71,0,0,1-3.06,1H8ZM9,35.67c1.61,3.35.78,5.77-.6,6.57a1.81,1.81,0,0,1-2.68-.88A1.92,1.92,0,0,1,6.9,39.05a3.68,3.68,0,0,0,1.74-3.36Zm14.51,5c1.06.37,1.32.78,1.32,1.43,0,1.54-1.45,1.95-6.6,1.95H15C11.76,44,11,43.47,11,41.13V35.22l4.6.34c-.05.37-.28.57-.83.68v4.24c0,.36.13.46,1,.46h2.94c.83,0,1.72,0,2.16,0a1,1,0,0,0,.86-.39,16,16,0,0,0,1.51-3h.23ZM29.7,24.46a1.38,1.38,0,0,1-1,.36,20.76,20.76,0,0,1-4.17,2.5l-.15-.16A26.45,26.45,0,0,0,24.86,24h-7a18.28,18.28,0,0,1-2.37,3l3.85,1.32v-3l4.45.39c-.06.37-.26.63-1,.73V34.7a5.33,5.33,0,0,1-2.83.63h-.65V28.88a1.65,1.65,0,0,1-.68.1,12,12,0,0,1-5.79,5.18L12.62,34a17.89,17.89,0,0,0,2.75-6.81,16,16,0,0,1-2.52,2L12.56,29a35.06,35.06,0,0,0,2.71-9.12l4.89,1.51c-.11.33-.45.54-1.07.54-.23.5-.49,1-.75,1.41h6.31l1.85-1.88Zm-13.39,9.7c7.12,1.82,3.51,7.23.78,4.57a8.36,8.36,0,0,0-1-4.44Zm7.25,1.14c8.43,2.11,5,8.84,1.74,6a10.18,10.18,0,0,0-1.95-5.85Zm.26-7.67c8.43,1.93,5.23,8.45,2,5.8a13,13,0,0,0-2.19-5.67Z"/><path class="cls-1" d="M55.28,40.5c1,1.72,1.15,2.65.65,3.17-1.35,1.38-3.74.24-5-.83a15.41,15.41,0,0,1-2.81-3.2,22.48,22.48,0,0,1-7.49,4l-.18-.28A23.09,23.09,0,0,0,47,37.54a26.65,26.65,0,0,1-2.13-8.4H40.75v3.48c1.38-.18,2.81-.39,4.24-.59l0,.28c-1.09.6-2.49,1.3-4.26,2.11v5.82c0,2.42-.63,4.11-4.63,4.4A4.59,4.59,0,0,0,35.44,42a3.61,3.61,0,0,0-2.54-1.22v-.31s3,.18,3.61.18c.42,0,.55-.21.55-.52V36c-1,.42-2.11.86-3.31,1.33A1.17,1.17,0,0,1,33,38l-1.58-4.24c1.14-.1,3.2-.34,5.67-.65v-4H31.62l-.21-.73h5.65V24.69c-1.85.24-3.8.42-5.62.52L31.39,25a44.39,44.39,0,0,0,9.67-4.83l3.41,3c0-.86,0-1.74,0-2.62l4.63.44c0,.34-.24.65-.91.75a65,65,0,0,0,.15,6.76h2.6l1.77-2.1a2.3,2.3,0,0,1-1.77-.55A7.44,7.44,0,0,0,49.3,21.5l.21-.13c5.82.72,5.3,4.31,3.38,4.88.47.34,2.18,1.56,3.3,2.47-.08.29-.36.42-.73.42H48.39a24.46,24.46,0,0,0,.94,4.63A23.94,23.94,0,0,0,51,29.66l4.35,2c-.16.28-.42.46-1,.39a25.3,25.3,0,0,1-3.46,5A9.71,9.71,0,0,0,53,39.33c.39.34.6.34.86-.08a28.84,28.84,0,0,0,1.82-3.32l.24.07ZM44.75,28.41c-.15-1.51-.23-3.09-.26-4.7a2.81,2.81,0,0,1-1.43-.19c-.67.19-1.45.37-2.31.55v4.34Z"/><path class="cls-1" d="M83.1,23.73c-.21.26-.54.37-1.17.39a44.22,44.22,0,0,1-4.16,6.16A7.92,7.92,0,0,1,82.32,37c0,2.68-1.14,4.45-4.47,4.48a10.12,10.12,0,0,0-.36-3,1.84,1.84,0,0,0-1.2-.81v-.31h1.59a.86.86,0,0,0,.52-.13c.33-.21.52-.6.52-1.33a9.08,9.08,0,0,0-1.82-5.61,69.9,69.9,0,0,0,1-7.23h-2V43.52c0,.26-1.07,1.09-2.91,1.09h-.65V29.74a1.74,1.74,0,0,1-.34.05H67.32a31.9,31.9,0,0,1-2.57,2.65h1.89l1.56-1.69,3.18,2.42a1.74,1.74,0,0,1-1,.52v9.72a5.79,5.79,0,0,1-2.91.84h-.6V41.93h-3v1.61c0,.24-1,1-2.76,1h-.62V35.59A22,22,0,0,1,57.88,37l-.23-.28a28.09,28.09,0,0,0,2.86-2.37V31.09l2.26.83c.57-.7,1.12-1.4,1.66-2.13H58l-.21-.73H62v-4h-3.3l-.21-.72H62V20.2l4.48.36c-.06.36-.24.62-1,.73v3l1.33-2s.6.55,1.25,1.17c.39-.88.73-1.74,1-2.57l3.49,1.71v-2l3.92,1.79h1.35l1.8-1.77ZM63.89,33.17v3.67h3V33.17Zm3,8V37.56h-3V41.2ZM65.47,25.08v3.15c.68-1,1.28-2.11,1.82-3.15ZM70.28,27s1.3,1.09,2.27,2v-5.9a1.57,1.57,0,0,1-.73,0,34.9,34.9,0,0,1-3.88,5.93h.86Z"/><path class="cls-1" d="M105.33,22s2.34,1.71,3.77,2.91c-.08.28-.39.41-.78.41H96.08a25.71,25.71,0,0,1-2,3.18l1.06.36h6.09l1.71-1.95,3.54,2.73a1.69,1.69,0,0,1-1.14.62V40.42c0,2.45-.58,3.83-4.68,4.19a5.28,5.28,0,0,0-.68-2.7,3.35,3.35,0,0,0-2.39-1.25v-.31s2.81.15,3.4.15c.42,0,.52-.18.52-.52v-2.6H94.33a9.36,9.36,0,0,1-5.46,7.31l-.15-.18c1.9-2.89,2-6.66,2-10.12V32.26a23,23,0,0,1-5.56,3.67l-.21-.24A26.83,26.83,0,0,0,92,25.34H85.42l-.21-.72h7.07a38.55,38.55,0,0,0,1.43-4.76l5,1.43c-.11.28-.31.52-1,.54a29.59,29.59,0,0,1-1.27,2.79h6.78Zm-3.85,14.63V33.43H94.54v1a22,22,0,0,1-.1,2.26Zm-6.94-7V32.7h6.94V29.61Z"/><path class="cls-1" d="M122.93,36.58a67.47,67.47,0,0,1-8.71,6.52,2.36,2.36,0,0,1-.88.78l-2-4.31c.91-.52,1.07-.81,1.07-1.43V28l4,1.79h1.53V23.47H111.7l-.23-.73h6.16l1.61-1.69,3.2,2.42a1.58,1.58,0,0,1-.91.5v7.2a5.38,5.38,0,0,1-3,1h-.62V30.49H116V38.4c2-.58,4.47-1.3,6.89-2.06Zm11.21-9.36a20.94,20.94,0,0,1-4.08,10.47,16.92,16.92,0,0,0,6,2.79l-.08.28a4.06,4.06,0,0,0-3.07,3.46,11.5,11.5,0,0,1-5-4.32,23.38,23.38,0,0,1-10.42,4.76l-.13-.26a21,21,0,0,0,9.28-6.94,30.86,30.86,0,0,1-1.79-7.33,19.21,19.21,0,0,1-4.24,4.16l-.29-.21a38.32,38.32,0,0,0,4.45-14.17l5.15,1.25c-.11.34-.42.57-1,.6A34.07,34.07,0,0,1,127,26.49h4.34l1.79-2.42s2.06,1.64,3.28,2.73c-.08.29-.37.42-.76.42Zm-7.49,0c-.47.85-.93,1.63-1.45,2.39a15.11,15.11,0,0,0,2.62,5.85A22,22,0,0,0,130,27.22Z"/><path class="cls-1" d="M140.54,30.41c2.18,6-4.16,4.84-1.93,2.06a2.74,2.74,0,0,0,1.59-2.08Zm16.74,6a14.29,14.29,0,0,1-4.34,4.08,45.65,45.65,0,0,0,9.77.86v.34a3.19,3.19,0,0,0-2.1,3c-4.71-.44-8-1.27-10.45-2.73a42,42,0,0,1-11.83,2.81l-.11-.31a35.45,35.45,0,0,0,10.17-3.75,14.31,14.31,0,0,1-2.63-3.06,21.21,21.21,0,0,1-6.6,3l-.16-.21a17.87,17.87,0,0,0,6.16-7.1,1.71,1.71,0,0,1-.57-.39,7.16,7.16,0,0,0-.62-3.14l.31-.13c2.7,1.14,2.76,2.78,2.05,3.45l.73.21V27.53l2.86,1.12h1.17l1-1,2.08,1.56a.94.94,0,0,1-.55.29v2.94a2.54,2.54,0,0,1,.39-.65,1.94,1.94,0,0,0,1.09-1.36l-.15.08L153.85,28a4.3,4.3,0,0,0,.73-.24,11.89,11.89,0,0,0,2.86-2.29c-.63.26-1.33.52-2,.78a1.15,1.15,0,0,1-.44.37l-1.12-2.5a2.33,2.33,0,0,0,.6-.21,10.46,10.46,0,0,0,3.22-4.1l3.2,1.76a.87.87,0,0,1-1,.32A20.29,20.29,0,0,1,156,24.28l2.55-.08a14.05,14.05,0,0,0,1.33-1.87l2.86,2.08a.85.85,0,0,1-1,.21,22.18,22.18,0,0,1-2.21,1.58c4.42,1.64,2.29,4.89.54,3.36a5,5,0,0,0-.15-.94c-1.15.44-2.86,1-4.58,1.56l0,.05h.18c1.9,4.6-2.1,4.42-2,2.6a4.46,4.46,0,0,1-1.88.52h-.41v-1h-1.67v.44c0,.18-.72.68-1.87.73l2.52.75c-.1.26-.31.39-1.06.34a11.09,11.09,0,0,1-1,1h8.35l1.66-2a1.39,1.39,0,0,1-1.22-.55,7.83,7.83,0,0,0-.26-3.25l.31-.1c2.89,1.53,2.42,3.46,1.38,3.85.42.28,2.06,1.5,3.12,2.41-.08.29-.36.42-.72.42Zm-18.9-8.37a3.52,3.52,0,0,0,.7-.24A11.38,11.38,0,0,0,142,25.55c-.54.24-1.14.44-1.71.68a1.48,1.48,0,0,1-.5.39l-1.14-2.55a4.31,4.31,0,0,0,.62-.21,10.29,10.29,0,0,0,3-4.11l3.27,1.8a.8.8,0,0,1-.93.28,21.56,21.56,0,0,1-3.9,2.45c.75,0,1.61,0,2.47,0a10.56,10.56,0,0,0,1.22-1.64l2.76,2h4l1-1.2s1.09.86,1.8,1.51a.6.6,0,0,1-.65.41h-6.11l-.13-.46a1,1,0,0,1-.78,0c-.5.39-1.1.81-1.77,1.25,4.24,1.85,1.77,5,0,3.33a5.32,5.32,0,0,0,0-.89c-1.15.45-2.86,1.07-4.58,1.62a1.45,1.45,0,0,1-.44.33ZM144,26.46A32.1,32.1,0,0,1,141.13,28l3.25-.08A11,11,0,0,0,144,26.46ZM142,30c3.95,2.57,1.09,5.53-.37,3.61a8.46,8.46,0,0,0,0-3.54Zm4.13-6.63-.21-.73h6.14l1-1.35s1.22,1,1.95,1.66a.59.59,0,0,1-.65.42Zm1.2,13.1c-.34.26-.68.55-1,.81a11.27,11.27,0,0,0,3.7,2.34,10.91,10.91,0,0,0,2.88-3.15Zm4.78-11s1.09.86,1.8,1.51a.6.6,0,0,1-.65.41h-6.11l-.21-.72h4.18Zm-3.59-5.69c5.26.18,2.79,4.05.65,2.44a4.14,4.14,0,0,0-.88-2.31Zm1,9.69v2.29h1.67V29.37Zm6.87-1.4c1,0,2.1,0,3.3,0a11.41,11.41,0,0,0-.6-1.43C158.27,27,157.36,27.53,156.45,28Zm2.81,1.51c4.5,1.56,2.28,4.81.62,3.25a7.28,7.28,0,0,0-.91-3.12Z"/><path class="cls-1" d="M178.6,23.71s2.18,1.66,3.48,2.8c-.07.29-.36.42-.75.42H165.26l-.21-.73h11.6Zm9.62-1a1.71,1.71,0,0,1-1.07.58V40.4c0,2.49-.65,3.9-5.14,4.31a4.34,4.34,0,0,0-1-2.7,5.25,5.25,0,0,0-3.17-1.33v-.33s4,.23,4.79.23c.49,0,.65-.21.65-.6V22.69H166.15l-.24-.73H183L184.76,20Zm-9.28,16a5.43,5.43,0,0,1-3,1h-.62V37.59h-4.58v2.13c0,.34-1.53,1.15-3,1.15h-.52V28.78l3.69,1.43H175l1.61-1.77L180,31a1.79,1.79,0,0,1-1,.55Zm-3.64-1.9V30.93h-4.58v5.93Z"/><path class="cls-1" d="M191.42,26.25c7.67.29,5,6.17,1.84,4.11a10.14,10.14,0,0,0-2-4Zm8.76-2.73c-1.07,3.44-2.83,9.75-3.2,11.34a11.37,11.37,0,0,0-.41,2.7c.05,1.54,1.27,2.34,1.19,4.76a2.36,2.36,0,0,1-2.52,2.37,1.67,1.67,0,0,1-1.72-1.38c.55-2.76.45-5.41-.2-5.85a3,3,0,0,0-1.43-.44v-.47h1.22c.41,0,.54,0,.86-.55.62-1.06.62-1.06,5.82-12.58Zm-6.5-3.22c8,.49,5.07,6.58,1.82,4.37a12,12,0,0,0-2-4.24Zm19.19,8.87s2.23,1.74,3.56,2.93c-.08.29-.36.42-.75.42h-10l4,1.74a.85.85,0,0,1-.89.42,29.79,29.79,0,0,1-6.91,5.41c2.37-.06,5.64-.19,9.15-.34a22.42,22.42,0,0,0-2.21-3.93l.23-.13c10.22,3,7,11,3.18,7.91a15.16,15.16,0,0,0-.86-3.05c-2.37.86-5.8,2-10.06,3.12a1.88,1.88,0,0,1-.73.6l-1.72-4.21a4.1,4.1,0,0,0,1-.42c1.51-1,3.75-4.73,4.55-7.12h-5.87l-.21-.73h6.58V26.18h-4.53l-.21-.73h4.74V20l4.73.39c-.05.37-.23.63-1,.73v4.32h1.27L211.8,23s2.11,1.66,3.36,2.78c-.08.29-.37.42-.76.42h-5.74v5.61h2.23Z"/><path class="cls-1" d="M242.79,25.89a1.75,1.75,0,0,1-1.17.55c-.18,10.92-.49,15.13-2,16.71a5.3,5.3,0,0,1-4.16,1.46,3.86,3.86,0,0,0-.63-2.6A5.14,5.14,0,0,0,232,40.68l0-.31c1.25.11,3,.21,3.69.21a1.26,1.26,0,0,0,1-.34c.94-.83,1.17-5.61,1.33-14.45h-4a20.29,20.29,0,0,1-4.76,5.48l-.16-.1V41.7a5.13,5.13,0,0,1-2.94,1h-.57v-2h-3.2V42.4c0,.39-1.32,1.2-2.83,1.2H219V23.73l3.28,1.35c.13-1.45.23-3.51.31-5l5,1.2c-.13.47-.49.65-1.12.65-.78.91-2,2.21-2.88,3.22h1.71l1.61-1.79,3.2,2.52a1.87,1.87,0,0,1-1,.57V30.8a45.5,45.5,0,0,0,3-10.76l4.84,1.4c-.1.34-.44.55-1,.55a26.44,26.44,0,0,1-1.48,3.07h3.25l2-2Zm-20.41,0v6.45h3.2V25.89Zm3.2,14V33.07h-3.2v6.81ZM231,30.34c8.22,1.89,4.71,8.26,1.51,5.48a11.28,11.28,0,0,0-1.71-5.35Z"/><path class="cls-1" d="M265.65,19.68s2.37,1.74,3.79,2.93c-.07.29-.38.42-.78.42h-3.09V40.19c0,2.47-.75,4.21-5.36,4.47a3.48,3.48,0,0,0-1.06-2.7,6.69,6.69,0,0,0-3.54-1.3v-.31s4.55.26,5.46.26c.47,0,.65-.21.65-.58V23h-17l-.2-.73h19Zm-7.44,17.55a6.13,6.13,0,0,1-3,.83h-.63V35.85h-3.48V38c0,.33-1.51,1.14-3,1.14h-.52V25.89l3.69,1.46h3.09l1.61-1.77,3.33,2.52a1.76,1.76,0,0,1-1,.55Zm-3.64-2.11v-7h-3.48v7Z"/><path class="cls-1" d="M279.17,23.5c7.54,1.32,5.12,6.89,2.23,5.41l2.27,1.71a1.73,1.73,0,0,1-1.07.55v9.38c0,2.24-.44,3.51-3.87,3.8a6,6,0,0,0-.39-2.39,2,2,0,0,0-1.62-1.09v-.34s1.54.1,2,.1.44-.15.44-.44V37.77c-.7.57-1.5,1.22-2.44,1.87a1,1,0,0,1-.68.68l-.52-1.25a8.72,8.72,0,0,1-4.1,5.67l-.21-.21c1.43-2.73,1.43-6.26,1.43-9.44V29l-1.22-3a4,4,0,0,0,.85-.31c1.38-.89,3.33-4.16,3.83-5.9l4.73,1.61a.86.86,0,0,1-.89.47,25,25,0,0,1-5.56,4.05c1.61,0,3.67,0,5.82,0A9.63,9.63,0,0,0,279,23.63Zm1.71,5a8.47,8.47,0,0,0-.31-1.64c-1.69.6-4,1.38-6.71,2.13l2.55.88h2.52l1.51-1.71Zm-5,6.57c0,.6,0,1.23-.05,1.88,1-.13,2.15-.37,3.32-.65V34.73a1.36,1.36,0,0,1-1.43.52,6.1,6.1,0,0,0-1.84-1.14Zm3.27-4.47h-3.27v2c1.74-.86,2.83-.36,3.27.42Zm8.38.86c-2.81,0-3.36-.62-3.36-2.94V20.33l4.53.36c-.06.34-.29.57-.84.68v3h1.82l1.69-2.31s1.9,1.56,3,2.62c-.08.29-.34.42-.73.42h-5.8v2.57c0,.34.11.47.68.47h1.64l1.35,0,.88-.08a7.8,7.8,0,0,0,.89-.18h.23l.16.05c.91.41,1.22.8,1.22,1.45,0,1.46-1.27,2.11-5.2,2.11Zm6.52,8.71c.94.42,1.17.83,1.17,1.48,0,1.48-1.32,2.13-5.33,2.13H287.7c-2.86,0-3.46-.65-3.46-3V31.71l4.55.37c0,.36-.26.6-.83.67v3.12h2l1.69-2.31s1.9,1.56,3,2.63c-.08.28-.34.41-.73.41h-6v3.33c0,.36.13.49.72.49h1.72l1.35,0a1.26,1.26,0,0,0,.76-.26,10.18,10.18,0,0,0,1.22-2.29H294Z"/></svg>